<?xml version="1.0" encoding="utf-8"?>
<!-- Generator: Adobe Illustrator 16.0.0, SVG Export Plug-In . SVG Version: 6.00 Build 0)  -->
<!DOCTYPE svg PUBLIC "-//W3C//DTD SVG 1.1//EN" "http://www.w3.org/Graphics/SVG/1.1/DTD/svg11.dtd">
<svg version="1.1" id="Layer_1" xmlns="http://www.w3.org/2000/svg" xmlns:xlink="http://www.w3.org/1999/xlink" x="0px" y="0px"
	 width="500px" height="500px" viewBox="0 0 500 500" enable-background="new 0 0 500 500" xml:space="preserve">
<g>
	<path fill-rule="evenodd" clip-rule="evenodd" fill="#80BDA8" d="M297.086,198.149c-0.12,0.589-0.546,0.963-0.972,1.321
		c-3.705,3.107-7.695,5.775-12.129,7.743c-1.021,0.454-2.075,0.836-3.121,1.233c-1.575,0.597-3.178,1.075-4.88,1.156
		c-0.667,0.032-1.328,0.194-1.996,0.259c-0.777,0.076-1.565,0.199-2.339,0.146c-4.265-0.291-8.414-1.024-12.336-2.878
		c-4.68-2.213-8.999-4.987-13.165-8.029c-5.875-4.291-11.757-8.572-17.827-12.582c-5.143-3.396-10.498-6.438-16.086-9.042
		c-4.166-1.94-8.454-3.584-12.965-4.536c-2.623-0.553-5.264-1.055-7.973-0.969c-2.248,0.07-4.446,0.469-6.617,1.007
		c-4.319,1.07-7.694,3.593-10.296,7.108c-2.702,3.651-4.424,7.759-5.08,12.283c-0.096,0.664-0.308,1.317-0.345,1.982
		c-0.081,1.449-0.263,2.926-0.072,4.348c0.238,1.774,0.298,3.58,0.636,5.326c1.086,5.618,2.589,11.114,5.476,16.13
		c1.677,2.913,3.501,5.732,5.576,8.378c4.021,5.126,8.596,9.705,13.585,13.902c4.294,3.611,8.833,6.87,13.512,9.94
		c4.211,2.763,8.568,5.289,12.936,7.799c4.76,2.735,9.69,5.141,14.538,7.707c4.65,2.463,9.336,4.847,14.114,7.053
		c1.828,0.845,3.598,1.812,5.395,2.723c0.243,0.125,0.325,0.326,0.204,0.571c-0.036,0.075-0.166,0.156-0.246,0.15
		c-6.136-0.481-12.178-1.571-18.215-2.733c-6.158-1.186-12.227-2.717-18.25-4.429c-2.688-0.765-5.343-1.665-7.975-2.612
		c-6.111-2.199-12.093-4.703-17.878-7.679c-6.395-3.29-12.394-7.196-18.036-11.623c-2.987-2.344-5.882-4.84-8.448-7.668
		c-3.994-4.401-7.62-9.064-10.611-14.234c-3.516-6.079-5.778-12.587-7.222-19.416c-0.811-3.837-1.33-7.705-1.396-11.64
		c-0.07-4.172,0.433-8.268,1.46-12.293c1.392-5.459,3.485-10.634,6.683-15.308c4.119-6.02,9.286-10.875,15.871-14.134
		c3.335-1.651,6.885-2.629,10.502-3.416c4.54-0.986,9.128-0.844,13.712-0.592c1.554,0.085,3.104,0.417,4.634,0.741
		c7.507,1.592,14.542,4.381,21.164,8.271c5.908,3.471,11.38,7.521,16.591,11.956c5.033,4.283,9.997,8.643,14.509,13.475
		c2.444,2.619,4.852,5.272,7.429,7.76c2.42,2.334,4.997,4.486,7.863,6.263c3.213,1.992,6.745,2.957,10.497,3.11
		c3.729,0.152,7.343-0.652,10.918-1.576c2.271-0.587,4.491-1.37,6.744-2.033c0.635-0.188,1.304-0.262,1.957-0.388L297.086,198.149z"
		/>
	<path fill-rule="evenodd" clip-rule="evenodd" fill="#70CBDA" d="M256.138,180.699c0.112-0.539,0.09-1.159,0.357-1.605
		c1.554-2.59,3.139-5.164,5.099-7.48c1.3-1.536,2.544-3.113,3.975-4.544c3.904-3.907,8.299-7.168,13.052-9.933
		c6.033-3.51,12.462-6.082,19.293-7.579c2.618-0.573,5.279-0.884,7.942-1.218c3.241-0.406,6.474-0.502,9.712-0.423
		c5.644,0.137,11.123,1.149,16.239,3.637c1.502,0.729,2.893,1.692,4.312,2.586c4.447,2.801,7.845,6.623,10.579,11.06
		c3.146,5.104,5.165,10.627,6.232,16.535c0.381,2.108,0.563,4.206,0.651,6.331c0.102,2.455,0.09,4.906,0.055,7.364
		c-0.073,5.197-1.08,10.223-2.46,15.186c-2.358,8.486-6.181,16.308-11.1,23.588c-2.379,3.523-5.004,6.875-7.98,9.929
		c-1.329,1.363-2.666,2.717-4.011,4.064c-3.406,3.416-7.114,6.461-11.078,9.219c-3.958,2.755-8.07,5.234-12.366,7.41
		c-7.521,3.809-15.396,6.635-23.613,8.521c-4.931,1.132-8.608,1.679-13.902,2.123c-1.891,0.159-3.758,0.61-5.674,0.49
		c-0.196-0.012-0.387-0.121-0.582-0.18c-0.213-0.063-0.235-0.171-0.058-0.329c0.246-0.219,0.467-0.485,0.748-0.642
		c4.305-2.388,8.654-4.696,12.92-7.152c6.211-3.575,12.154-7.564,17.914-11.831c3.331-2.467,6.519-5.111,9.59-7.879
		c2.988-2.693,5.902-5.487,8.412-8.663c1.248-1.579,2.605-3.07,3.858-4.645c6.477-8.142,11.372-17.136,14.436-27.093
		c1.086-3.529,1.894-7.118,2.2-10.823c0.165-2.002,0.588-3.986,0.459-6.009c-0.221-3.462-0.608-6.9-1.611-10.241
		c-0.52-1.728-1.219-3.367-2.275-4.838c-0.718-0.999-1.494-1.958-2.168-2.985c-1.965-2.997-4.866-4.607-8.234-5.336
		c-3.491-0.754-7.002-1.483-10.602-1.57c-0.891-0.021-1.778-0.179-2.666-0.292c-1.785-0.227-3.569-0.229-5.355,0
		c-0.887,0.113-1.776,0.246-2.668,0.274c-4.958,0.16-9.746,1.27-14.483,2.615c-7.599,2.158-14.602,5.611-21.178,9.959
		c-0.934,0.617-1.828,1.292-2.772,1.891c-0.364,0.231-0.817,0.322-1.229,0.477L256.138,180.699z"/>
	<path fill-rule="evenodd" clip-rule="evenodd" fill="#82BEAA" d="M167.513,342.512c0-1.003,0.02-2.007-0.007-3.01
		c-0.019-0.713,0.327-1.288,0.604-1.894c0.517-1.134,0.764-2.283,0.731-3.566c-0.045-1.779,0.13-3.563,0.48-5.334
		c0.236-1.194,0.209-2.445,0.255-3.672c0.03-0.781-0.088-1.571-0.026-2.349c0.153-1.917,0.016-3.796-0.48-5.657
		c-0.324-1.216-0.271-2.398,0.233-3.607c0.514-1.23,0.89-2.517,0.978-3.889c0.076-1.192,0.766-1.728,2.013-1.806
		c0.557-0.034,1.119-0.02,1.676,0.003c0.594,0.024,1.119,0.265,1.381,0.803c0.502,1.028,1.192,1.873,2.106,2.56
		c0.381,0.286,0.479,0.741,0.413,1.208c-0.079,0.551-0.396,1.181-0.225,1.631c0.434,1.143,0.326,2.457,1.072,3.475
		c0.458,0.625,0.432,1.199,0.167,1.877c-0.201,0.512-0.45,1.107-0.363,1.612c0.389,2.292-0.638,4.396-0.771,6.61
		c-0.04,0.666-0.328,1.339-0.266,1.986c0.241,2.501-0.517,4.864-0.894,7.278c-0.085,0.546-0.202,1.136-0.485,1.594
		c-0.77,1.248-0.846,2.54-0.378,3.865c0.354,1.002,0.36,1.927-0.005,2.937c-0.346,0.957-0.279,1.98-0.011,2.976
		c0.216,0.809,1.024,1.41,1.768,1.168c0.966-0.315,1.931-0.494,2.946-0.545c0.535-0.026,1.087-0.244,1.579-0.484
		c1.604-0.785,3.03-1.915,4.765-2.454c0.197-0.062,0.432-0.233,0.507-0.414c0.622-1.495,2.086-1.951,3.304-2.698
		c0.762-0.467,1.548-0.914,2.37-1.261c1.842-0.779,3.146-2.107,4.037-3.849c0.477-0.933,1.152-1.576,2.026-2.154
		c1.952-1.293,3.866-2.659,5.437-4.431c0.444-0.501,0.941-0.975,1.287-1.538c0.538-0.88,1.164-1.634,2.07-2.146
		c0.712-0.403,1.117-1.065,1.475-1.779c0.711-1.42,1.081-2.886,1.196-4.493c0.129-1.805,0.23-3.548-0.438-5.271
		c-0.395-1.017-0.149-1.979,0.417-2.876c0.358-0.568,0.769-1.112,1.056-1.714c0.761-1.591,2.16-2.188,3.748-2.509
		c0.453-0.091,0.906,0.027,1.251,0.343c0.743,0.679,1.449,1.398,2.193,2.077c0.695,0.634,1.107,1.377,1.14,2.339
		c0.032,0.919,0.452,1.726,0.857,2.524c0.322,0.638,0.301,1.26,0.137,1.946c-0.206,0.863-0.386,1.758-0.395,2.641
		c-0.03,3.356-0.005,6.715,0.044,10.072c0.012,0.773,0.124,1.565,0.331,2.31c0.341,1.224,0.423,2.434,0.037,3.638
		c-0.286,0.888-0.27,1.735-0.061,2.638c0.381,1.652,0.475,3.352,0.091,5.001c-0.515,2.212-0.477,4.446-0.489,6.68
		c-0.029,5.261-0.008,10.521-0.002,15.782c0.001,0.783-0.112,1.602,0.075,2.341c0.312,1.233,0.217,2.412,0.038,3.64
		c-0.161,1.101,0.072,2.293-0.245,3.331c-0.651,2.132-1.479,4.221-2.379,6.265c-0.631,1.431-1.351,2.821-1.824,4.318
		c-1.092,1.114-2.215,2.202-3.037,3.549c-0.116,0.189-0.239,0.416-0.419,0.516c-1.496,0.84-2.409,2.339-3.757,3.318
		c-1.261,0.915-2.656,1.647-4.007,2.436c-0.577,0.336-1.197,0.597-1.788,0.91c-0.5,0.265-1.011,0.423-1.589,0.462
		c-0.543,0.037-1.151,0.103-1.599,0.374c-1.006,0.611-1.962,0.983-3.146,0.486c-0.368-0.154-0.89-0.061-1.311,0.044
		c-1.766,0.441-3.559,0.548-5.333,0.239c-1.749-0.304-3.514-0.509-5.202-1.204c-1.748-0.722-3.545-1.385-5.48-1.511
		c-1.5-0.098-2.631-1.19-4.032-1.58c-0.191-0.055-0.405-0.247-0.489-0.431c-0.538-1.171-1.745-1.714-2.484-2.693
		c-0.2-0.265-0.423-0.593-0.708-0.698c-1.557-0.578-2.417-1.926-3.521-3.021c-0.706-0.7-1.595-1.215-2.398-1.818
		c-0.473-0.355-0.749-0.825-0.75-1.425c-0.004-1.353-0.185-2.679-0.549-3.98c-0.372-1.329-0.314-2.652,0.038-3.979
		c0.172-0.649,0.279-1.315,0.465-1.96c0.089-0.31,0.263-0.61,0.457-0.873c0.727-0.988,1.522-1.928,2.208-2.943
		c0.717-1.062,1.668-1.81,2.799-2.336c0.914-0.424,1.889-0.745,2.636-1.443c1.027-0.961,2.15-1.578,3.617-1.412
		c0.947,0.107,1.699-0.501,2.527-0.814c0.816-0.31,1.529-0.184,2.205,0.332c0.178,0.136,0.372,0.251,0.545,0.392
		c1.488,1.208,1.558,3.166,0.057,4.32c-1.146,0.88-2.319,1.769-3.698,2.272c-0.667,0.243-1.183,0.608-1.525,1.223
		c-0.228,0.408-0.561,0.743-1.013,0.812c-1.246,0.188-1.84,1.199-2.6,1.991c-0.214,0.224-0.314,0.582-0.405,0.896
		c-0.184,0.64-0.287,1.304-0.496,1.935c-0.188,0.574-0.092,1.089,0.095,1.629c0.374,1.079,0.844,2.056,1.959,2.591
		c0.727,0.349,1.18,0.989,1.564,1.699c0.784,1.45,2.031,2.382,3.594,2.817c0.776,0.216,1.458,0.53,2.1,0.995
		c0.266,0.193,0.6,0.42,0.9,0.417c1.873-0.019,3.29,1.337,5.053,1.627c0.546,0.089,1.083,0.317,1.626,0.326
		c2.013,0.032,4.034,0.081,5.952-0.726c0.938-0.395,1.921-0.574,2.948-0.535c0.69,0.026,1.296-0.24,1.897-0.577
		c0.578-0.324,1.21-0.557,1.83-0.801c1.449-0.569,2.843-1.185,3.762-2.562c0.299-0.448,0.836-0.732,1.229-1.126
		c0.394-0.396,0.703-0.881,1.123-1.243c0.813-0.701,0.993-1.716,1.45-2.599c0.399-0.771,1.465-1.029,1.79-1.938
		c0.262-0.733,0.619-1.447,0.769-2.202c0.282-1.426,0.447-2.873,0.657-4.313c0.048-0.332,0.16-0.682,0.103-0.997
		c-0.423-2.347,0.137-4.681,0.065-7.024c-0.073-2.35,0.002-4.702-0.027-7.054c-0.012-0.891-0.151-1.779-0.208-2.671
		c-0.036-0.554-0.113-1.126-0.023-1.665c0.427-2.563,0.21-5.142,0.224-7.712c0.008-1.56-0.159-3.112-0.031-4.684
		c0.07-0.865-0.204-1.763-0.35-2.641c-0.127-0.769-0.289-1.53-0.439-2.295c-0.06-0.306-0.028-0.701-0.465-0.734
		c-0.196-0.017-0.453,0.059-0.598,0.187c-1.088,0.964-2.177,1.93-3.222,2.939c-0.802,0.775-1.549,1.608-2.302,2.433
		c-0.828,0.908-1.645,1.826-2.446,2.756c-1.168,1.357-2.311,2.719-3.886,3.664c-0.953,0.571-1.78,1.349-2.691,1.995
		c-0.543,0.386-1.102,0.813-1.721,1.009c-0.806,0.255-1.391,0.673-1.799,1.39c-0.282,0.495-0.645,0.938-1.195,1.128
		c-1.58,0.547-2.954,1.521-4.534,2.092c-1.57,0.568-3.031,1.431-4.58,2.068c-0.628,0.259-1.186,0.608-1.781,0.905
		c-0.794,0.396-1.633,0.783-2.496,0.945c-2.728,0.511-5.122-0.128-6.904-2.393c-0.552-0.701-1.005-1.479-1.531-2.203
		c-0.474-0.652-0.735-1.351-0.789-2.168c-0.051-0.774-0.091-1.608-0.404-2.294C167.531,347.204,167.519,344.86,167.513,342.512z"/>
	<path fill-rule="evenodd" clip-rule="evenodd" fill="#81BEA9" d="M138.105,316.705c-0.121,0-0.272-0.047-0.33,0.008
		c-0.57,0.529-1.205,1.015-1.667,1.63c-1.281,1.703-2.678,3.299-4.13,4.854c-0.528,0.566-0.962,1.233-1.36,1.902
		c-1.454,2.444-3.38,4.446-5.695,6.063c-1.128,0.788-2.144,1.601-2.537,3.002c-0.081,0.288-0.371,0.671-0.63,0.732
		c-1.745,0.406-2.354,2.369-4.032,2.878c-0.364,0.11-0.673,0.574-0.895,0.943c-0.413,0.686-0.86,1.315-1.622,1.633
		c-0.755,0.315-1.278,0.845-1.704,1.542c-0.638,1.046-1.261,2.106-2.254,2.898c-0.327,0.26-0.537,0.716-0.701,1.123
		c-0.728,1.813-2.262,1.971-3.884,1.905c-0.292-0.012-0.669-0.222-0.842-0.461c-0.786-1.087-1.664-2.148-2.22-3.352
		c-0.551-1.191-0.763-2.541-1.109-3.826c-0.057-0.212-0.022-0.446-0.055-0.667c-0.098-0.68-0.31-1.29-0.896-1.733
		c-0.994-0.75-1.718-1.75-2.477-2.723c-0.624-0.799-1.226-1.584-1.5-2.591c-0.113-0.416-0.401-0.79-0.634-1.167
		c-0.176-0.285-0.431-0.525-0.582-0.819c-1.125-2.198-2.49-4.211-4.094-6.108c-1.871-2.213-3.789-4.403-5.394-6.834
		c-0.184-0.277-0.719-0.239-0.831,0.038c-0.041,0.102-0.119,0.188-0.162,0.289c-0.089,0.205-0.207,0.409-0.24,0.625
		c-0.279,1.813-1.058,3.399-2.098,4.891c-0.587,0.841-0.982,1.759-0.552,2.833c0.215,0.539,0.125,1.09-0.06,1.639
		c-1.351,4.031-2.624,8.09-4.067,12.088c-0.604,1.672-1.543,3.226-2.37,4.812c-0.368,0.706-0.732,1.401-0.646,2.217
		c0.124,1.172-0.234,2.218-0.788,3.208c-0.629,1.125-0.822,2.295-0.57,3.561c0.173,0.867-0.281,1.506-0.882,2.057
		c-0.919,0.841-1.976,1.459-3.126,1.928c-0.673,0.275-1.308,0.193-1.937-0.126c-1.79-0.908-2.807-2.868-2.324-4.728
		c0.59-2.271,1.033-4.594,2.095-6.717c0.31-0.619,0.43-1.268,0.416-1.946c-0.027-1.399,0.366-2.667,1.284-3.723
		c0.927-1.065,1.39-2.305,1.426-3.68c0.03-1.154,0.401-2.188,0.825-3.229c0.21-0.515,0.52-1.049,0.523-1.576
		c0.011-1.504,0.537-2.797,1.176-4.13c0.623-1.3,0.963-2.741,1.375-4.136c0.322-1.093,0.216-2.221,0.103-3.337
		c-0.083-0.808,0.002-1.563,0.597-2.183c0.493-0.516,0.656-1.147,0.683-1.842c0.078-2.009-0.003-4.03,0.635-5.987
		c0.177-0.539,0.006-1.11-0.249-1.625c-0.297-0.602-0.584-1.211-0.914-1.795c-0.705-1.25-0.46-2.353,0.462-3.369
		c0.225-0.248,0.487-0.473,0.663-0.752c0.47-0.748,0.646-1.733,1.513-2.159c0.69-0.338,1.48-0.468,2.186-0.78
		c1.017-0.451,1.936-0.319,2.874,0.217c1.414,0.809,2.537,1.92,2.999,3.467c0.452,1.516,1.339,2.834,1.749,4.347
		c0.199,0.734,0.56,1.16,1.355,1.219c1.396,0.104,2.264,0.922,2.63,2.218c0.37,1.31,1.471,2.245,1.729,3.617
		c0.073,0.388,0.492,0.732,0.8,1.05c0.781,0.802,1.562,1.607,2.394,2.355c1.187,1.069,2.157,2.254,2.601,3.833
		c0.111,0.396,0.416,0.823,0.755,1.057c0.991,0.68,1.466,1.671,1.831,2.739c1.058,3.105,2.895,5.792,4.57,8.567
		c0.109,0.181,0.332,0.292,0.499,0.438c0.208,0.182,0.783,0.201,0.931-0.009c0.853-1.202,1.982-2.069,3.192-2.896
		c0.815-0.558,1.528-1.332,2.118-2.134c0.609-0.828,1.247-1.575,2.145-2.074c1.493-0.827,2.288-2.444,3.759-3.306
		c0.246-0.144,0.41-0.538,0.482-0.847c0.189-0.8,0.653-1.406,1.188-1.993c1.355-1.487,3.014-2.674,4.237-4.294
		c0.196-0.259,0.484-0.501,0.783-0.621c1.681-0.681,2.557-2.138,3.422-3.569c0.524-0.866,0.947-1.742,1.927-2.232
		c0.359-0.18,0.629-0.636,0.824-1.023c0.565-1.132,1.279-2.064,2.486-2.607c0.54-0.243,0.631-0.881,0.612-1.464
		c-0.003-0.111-0.028-0.222-0.044-0.333c-0.125-0.873-0.874-1.646-0.542-2.572c0.261-0.729,0.703-1.393,1.053-2.091
		c0.15-0.3,0.252-0.624,0.408-0.92c0.304-0.578,0.359-1.373,1.08-1.616c0.841-0.284,1.708-0.518,2.627-0.336
		c1.369,0.271,2.518,0.839,3.33,2.046c0.747,1.11,1.538,2.183,2.168,3.375c0.378,0.715,0.646,1.406,0.647,2.216
		c0.001,0.557-0.024,1.144,0.134,1.664c0.257,0.848,0.759,1.627,0.961,2.48c0.175,0.74,0.045,1.549,0.111,2.321
		c0.051,0.583,0.479,0.992,0.83,1.426c0.306,0.38,0.417,0.818,0.122,1.225c-0.994,1.367-1.153,2.865-0.811,4.473
		c0.139,0.654,0.279,1.319,0.308,1.984c0.059,1.357,0.317,2.66,0.778,3.936c0.229,0.63,0.396,1.284,0.553,1.937
		c0.238,0.992,0.322,1.984-0.073,2.97c-0.122,0.305-0.316,0.695-0.223,0.954c0.527,1.461-0.198,2.866-0.12,4.311
		c0.078,1.446-0.072,2.907-0.154,4.36c-0.064,1.146,0.131,2.226,0.642,3.253c0.509,1.023,0.742,2.108,0.671,3.252
		c-0.11,1.789,0.61,3.257,1.727,4.587c0.863,1.028,1.708,2.071,2.536,3.128c0.477,0.608,0.366,1.27,0.005,1.887
		c-0.734,1.255-1.956,1.792-3.29,2.108c-0.304,0.072-0.693,0.029-0.977-0.103c-3.945-1.841-6.781-4.665-7.935-8.986
		c-0.289-1.078-0.71-2.122-1.022-3.195c-0.311-1.071-0.558-2.16-0.837-3.241c-0.377-1.458-0.304-2.88,0.328-4.261
		c0.451-0.985,0.354-1.947-0.077-2.92c-0.6-1.354-0.775-2.785-0.729-4.262c0.043-1.343,0.01-2.688,0.005-4.031
		c-0.005-1.346-0.028-2.693-0.463-3.985c-0.292-0.872-0.267-1.768-0.263-2.66c0.005-1.272-0.48-2.399-0.997-3.519
		C138.339,316.75,138.188,316.738,138.105,316.705z"/>
	<path fill-rule="evenodd" clip-rule="evenodd" fill="#72CBDB" d="M319.252,320.326c-0.194,0.269-0.33,0.627-0.589,0.791
		c-1.405,0.89-2.731,2-4.553,1.901c-1.146,0.45-2.324,0.721-3.559,0.839c-0.766,0.072-1.217,1.059-2.066,0.979
		c-0.654-0.062-1.284-0.388-1.938-0.447c-0.783-0.071-1.545,0.126-2.25,0.536c-0.576,0.333-1.172,0.738-1.805,0.846
		c-1.379,0.234-1.861,1.166-1.999,2.335c-0.232,1.99-0.558,3.976-0.501,5.994c0.016,0.55-0.05,1.11-0.151,1.653
		c-0.164,0.889-0.224,1.769-0.127,2.67c0.047,0.437,0.107,0.95-0.07,1.317c-0.626,1.29-0.376,2.586-0.341,3.931
		c0.04,1.544-0.248,3.119-0.573,4.643c-0.405,1.9-0.514,3.749,0.082,5.625c0.653,2.058-0.047,3.972-0.748,5.865
		c-0.11,0.301-0.35,0.581-0.592,0.802c-1.028,0.938-2.219,1.49-3.644,1.452c-0.415-0.012-1.018-0.335-1.053-0.682
		c-0.147-1.475-0.781-2.782-1.326-4.129c-0.204-0.504-0.298-1.082-0.313-1.63c-0.046-1.565-0.145-3.101-0.479-4.653
		c-0.303-1.399-0.212-2.896-0.202-4.347c0.019-2.687,0.091-5.372,0.175-8.058c0.021-0.665,0.176-1.326,0.251-1.99
		c0.087-0.776,0.203-1.555,0.217-2.333c0.028-1.568,0.041-3.123,0.506-4.654c0.151-0.497,0.039-1.109-0.073-1.645
		c-0.168-0.804-0.883-1.404-1.649-1.435c-0.668-0.026-1.36-0.081-2.001,0.063c-1.322,0.296-2.648,0.407-3.996,0.397
		c-1.259-0.011-2.402,0.499-3.58,0.843c-0.759,0.223-1.498,0.295-2.306,0.197c-1.664-0.201-3.346-0.268-5.02-0.378
		c-2.487-0.165-4.925,0.057-7.244,1.042c-0.759,0.322-1.47,0.443-2.245,0.027c-0.382-0.204-0.866-0.385-1.277-0.338
		c-1.77,0.202-3.597-0.136-5.314,0.537c-0.443,0.174-0.871,0.112-1.298-0.06c-0.841-0.338-1.708-0.51-2.621-0.478
		c-1.115,0.04-1.68,0.528-1.73,1.593c-0.027,0.558-0.031,1.118-0.034,1.678c-0.006,1.008-0.011,2.007-0.27,2.999
		c-0.138,0.531-0.204,1.117-0.137,1.658c0.124,1.001,0.341,1.984-0.083,2.965c-0.043,0.099-0.071,0.238-0.035,0.329
		c0.615,1.55,0.043,3.091-0.021,4.634c-0.032,0.784-0.116,1.572,0.171,2.325c0.536,1.404-0.55,2.858,0.195,4.281
		c0.656,1.254,0.221,2.644,0.256,3.97c0.023,0.893-0.786,1.738-1.655,1.853c-0.551,0.072-1.121,0.124-1.669,0.063
		c-1.177-0.133-2.103-0.716-2.701-1.763c-0.616-1.081-1.069-2.217-1.141-3.477c-0.031-0.559-0.061-1.117-0.088-1.677
		c-0.028-0.574-0.21-1.09-0.554-1.554c-0.265-0.36-0.517-0.73-0.762-1.104c-0.65-0.989-0.849-2.056-0.511-3.202
		c0.095-0.321,0.285-0.627,0.315-0.952c0.073-0.771,0.249-1.592,0.076-2.318c-0.447-1.877-0.42-3.775-0.502-5.673
		c-0.043-1.006-0.062-2.014-0.081-3.021c-0.052-2.676,0.125-2.67-1.878-3.881c-0.388-0.235-0.62-0.661-0.659-1.123
		c-0.067-0.779-0.053-1.566-0.135-2.345c-0.151-1.456,0.1-2.64,1.65-3.272c1.155-0.472,1.638-1.504,1.678-2.695
		c0.053-1.564,0.059-3.133,0.011-4.697c-0.042-1.352-0.031-2.696,0.379-3.985c0.355-1.116,0.295-2.179,0.021-3.297
		c-0.627-2.566-0.407-5.113,0.411-7.604c0.129-0.395,0.441-0.818,0.789-1.033c0.95-0.584,1.952-1.09,2.959-1.574
		c0.409-0.196,0.866-0.124,1.289,0.101c1.086,0.576,2.188,1.123,3.27,1.709c0.402,0.218,0.663,0.578,0.763,1.047
		c0.115,0.544,0.152,1.137,0.399,1.617c0.496,0.967,0.584,1.933,0.204,2.915c-0.421,1.089-0.464,2.164-0.193,3.29
		c0.345,1.436,0.306,2.886,0.016,4.329c-0.355,1.763-0.673,3.517,0.024,5.285c0.103,0.261-0.052,0.653-0.16,0.959
		c-0.148,0.414-0.384,0.796-0.55,1.205c-0.104,0.258,0.159,0.752,0.399,0.829c0.211,0.067,0.416,0.171,0.631,0.201
		c0.33,0.048,0.668,0.067,1.003,0.065c4.81-0.025,9.621-0.086,14.431-0.065c1.262,0.006,2.415-0.497,3.611-0.572
		c1.189-0.073,2.331,0.636,3.595,0.627c2.464-0.019,4.918-0.047,7.357-0.462c1.1-0.187,2.221-0.276,3.335-0.339
		c1.235-0.068,2.449-0.229,3.634-0.591c0.459-0.14,0.775-0.418,0.833-0.922c0.025-0.221-0.002-0.459,0.067-0.665
		c0.481-1.406,0.602-2.789,0.152-4.258c-0.218-0.716-0.284-1.628-0.03-2.304c0.4-1.061,0.232-1.934-0.178-2.897
		c-0.479-1.131-0.885-2.297-1.272-3.463c-0.287-0.864-0.319-1.766-0.074-2.649c0.117-0.423,0.216-0.949,0.514-1.208
		c1.056-0.915,1.605-2.129,2.198-3.33c0.23-0.466,0.662-0.583,1.113-0.596c0.791-0.023,1.555,0.129,2.284,0.457
		c0.621,0.279,1.284,0.46,1.959,0.32c1.226-0.252,2.099,0.285,2.993,1.042c0.579,0.489,0.837,1,0.843,1.706
		c0.003,0.336,0.02,0.672,0.01,1.007c-0.066,2.344-0.166,4.681,0.513,6.98c0.287,0.969,0.258,1.991-0.144,2.969
		c-0.127,0.306-0.229,0.646-0.238,0.972c-0.055,1.9-0.085,3.801-0.106,5.701c-0.006,0.52,0.583,1.031,1.134,0.993
		c0.555-0.039,1.108-0.107,1.656-0.197c0.882-0.146,1.759-0.461,2.636-0.454c2.358,0.018,4.676-0.38,7.015-0.549
		c0.888-0.064,1.789-0.056,2.677,0.021c2.688,0.23,2.172,0.142,2.406,2.589C319.271,320.021,319.269,320.175,319.252,320.326z"/>
	<path fill-rule="evenodd" clip-rule="evenodd" fill="#72CCDB" d="M405.181,363.847c0,1.119,0.021,2.239-0.008,3.358
		c-0.018,0.664,0.018,1.375-0.205,1.979c-0.367,1.002-0.404,1.99-0.13,2.966c0.501,1.778,0.426,3.443-0.13,5.248
		c-0.616,2-0.948,4.109-0.821,6.268c0.11,1.898,0.039,3.822-0.715,5.622c-0.256,0.608-0.601,1.201-1.01,1.717
		c-0.591,0.744-1.362,1.132-2.367,0.833c-0.747-0.224-1.521-0.357-2.263-0.595c-0.444-0.142-0.735-0.513-0.804-0.985
		c-0.049-0.328-0.049-0.672-0.014-1.003c0.192-1.8,0.04-3.583-0.301-5.347c-0.135-0.688-0.188-1.339,0.166-1.948
		c0.906-1.561,0.854-3.222,0.494-4.89c-0.193-0.898-0.301-1.739,0.089-2.618c0.173-0.394,0.257-0.87,0.235-1.302
		c-0.115-2.346-0.207-4.688,0.029-7.031c0.022-0.217,0.019-0.49-0.093-0.656c-0.767-1.153-0.387-2.317-0.205-3.541
		c0.246-1.651,0.361-3.33,0.147-5.018c-0.15-1.183-0.649-2.379,0.018-3.585c0.143-0.258,0.058-0.663,0.023-0.995
		c-0.166-1.57-0.01-3.13,0.094-4.694c0.052-0.775-0.063-1.561-0.039-2.34c0.017-0.547,0.061-1.119,0.236-1.63
		c0.232-0.675,0.094-1.253-0.028-1.93c-0.373-2.087-0.546-4.223-0.081-6.317c0.345-1.556,0.625-3.069,0.051-4.62
		c-0.075-0.203-0.146-0.487-0.061-0.654c0.683-1.334-0.081-2.639-0.047-3.956c0.031-1.229,0.015-2.461-0.01-3.691
		c-0.008-0.445-0.098-0.89-0.157-1.333c-0.036-0.264-0.479-0.637-0.706-0.61c-1.214,0.141-2.343,0.731-3.594,0.676
		c-0.872,0.493-1.862,0.857-2.584,1.515c-0.797,0.725-1.74,0.969-2.672,1.308c-0.281,0.103-0.691,0.128-0.941-0.005
		c-1.492-0.788-2.855-1.762-3.985-3.034c-0.728-0.818-1.05-1.675-0.499-2.752c0.353-0.689,0.617-1.433,0.836-2.178
		c0.214-0.724,0.711-1.123,1.34-1.396c0.514-0.222,1.041-0.47,1.584-0.549c2.15-0.314,4.006-1.376,5.895-2.317
		c1.418-0.707,2.806-1.345,4.443-1.277c0.602,0.024,1.012-0.435,1.258-0.966c0.14-0.3,0.224-0.633,0.293-0.959
		c0.144-0.671,0.281-1.394,1.097-1.495c0.906-0.113,1.807,0.004,2.434,0.804c0.274,0.351,0.47,0.77,0.768,1.096
		c0.207,0.229,0.562,0.534,0.792,0.491c0.846-0.157,1.455,0.219,2.184,0.552c1.922,0.881,3.926,1.582,5.903,2.34
		c0.311,0.12,0.661,0.257,0.976,0.225c1.405-0.14,2.549,0.3,3.717,1.113c0.994,0.692,2.162,1.102,3.016,2.06
		c1.055,1.185,2.45,1.95,3.874,2.601c0.646,0.295,1.084,0.698,1.518,1.234c0.976,1.213,1.813,2.563,3.189,3.411
		c0.402,0.247,0.558,0.678,0.619,1.138c0.123,0.927,0.536,1.727,1.236,2.316c0.553,0.466,0.827,1.021,0.987,1.693
		c0.102,0.434,0.247,0.865,0.435,1.27c0.606,1.313,1.241,2.613,1.865,3.919c-0.058,1.487,0.405,2.869,0.859,4.252
		c0.42,1.277,0.828,2.514,0.101,3.861c-0.378,0.7-0.226,1.546,0.074,2.292c0.273,0.683,0.103,1.294-0.11,1.949
		c-0.555,1.71-1.708,3.146-2.192,4.891c-0.068,0.244-0.474,0.483-0.767,0.559c-0.774,0.198-1.521,0.476-2.104,1
		c-1.141,1.023-2.57,1.313-3.964,1.707c-0.752,0.213-1.521,0.367-2.271,0.586c-0.774,0.227-1.549,0.313-2.299-0.023
		c-1.043-0.469-2.111-0.705-3.263-0.605c-0.438,0.038-0.911,0.022-1.329-0.104c-0.895-0.27-1.75-0.232-2.635,0.046
		c-0.883,0.278-1.717,0.079-2.611-0.186c-1.156-0.342-2.405-0.382-3.618-0.507c-0.124-0.013-0.369,0.263-0.405,0.436
		c-0.11,0.546-0.194,1.105-0.205,1.661c-0.022,1.115,0.055,2.215-0.375,3.308c-0.234,0.597-0.174,1.321-0.19,1.989
		c-0.026,1.118-0.007,2.238-0.007,3.356C405.22,363.847,405.2,363.847,405.181,363.847z M405.593,342.115
		c-0.095,0.713,0.231,2.56,0.644,2.936c0.639,0.581,1.482,0.308,2.251,0.351c0.661,0.038,1.32,0.146,1.977,0.252
		c0.438,0.071,0.864,0.27,1.301,0.286c2.12,0.082,4.243,0.207,6.36,0.144c1.147-0.034,2.188,0.078,3.248,0.523
		c0.926,0.389,2.096-0.152,2.541-1.071c0.29-0.601,0.522-1.234,0.734-1.868c0.248-0.74,0.406-1.503,0.9-2.147
		c0.518-0.678,0.502-1.431,0.248-2.229c-0.168-0.524-0.321-1.095-0.287-1.633c0.089-1.397-0.374-2.652-0.887-3.888
		c-0.728-1.757-1.49-3.504-2.915-4.85c-0.242-0.229-0.538-0.464-0.651-0.758c-0.546-1.415-1.793-2.245-2.695-3.361
		c-0.532-0.658-1.114-1.041-1.962-1.09c-0.314-0.018-0.658-0.161-0.919-0.345c-0.995-0.701-1.977-1.423-2.936-2.174
		c-0.572-0.449-1.17-0.649-1.86-0.384c-0.662,0.254-1.274,0.238-1.937-0.054c-0.81-0.356-1.664-0.615-2.502-0.905
		c-0.226-0.077-0.77,0.246-0.812,0.463c-0.281,1.451-0.44,2.886,0.637,4.122c0.666,0.764,0.708,1.588,0.329,2.491
		c-0.17,0.409-0.375,0.843-0.394,1.271c-0.056,1.348-0.263,2.656-0.616,3.959c-0.238,0.878-0.098,1.774,0.325,2.608
		c0.252,0.499,0.506,1.002,0.685,1.528c0.102,0.301,0.176,0.71,0.053,0.972C405.717,338.832,406.238,340.608,405.593,342.115z"/>
	<path fill-rule="evenodd" clip-rule="evenodd" fill="#80BDA8" d="M219.198,125.159c0.288,5.506-1.902,10.086-5.578,13.929
		c-2.498,2.61-5.625,4.42-9.23,5.194c-1.308,0.28-2.642,0.549-3.971,0.597c-2.707,0.099-5.333-0.399-7.856-1.419
		c-4.194-1.697-7.457-4.5-9.738-8.382c-1.604-2.73-2.538-5.688-2.634-8.905c-0.085-2.84,0.307-5.57,1.375-8.204
		c1.654-4.079,4.41-7.213,8.143-9.512c2.621-1.614,5.5-2.533,8.532-2.799c3.518-0.308,6.942,0.372,10.083,1.965
		c5.248,2.661,8.706,6.865,10.354,12.556C219.154,121.828,219.128,123.492,219.198,125.159z"/>
	<path fill-rule="evenodd" clip-rule="evenodd" fill="#70CBDA" d="M291.804,120.39c0.117-10.087,7.938-19.189,19.889-19.479
		c11.31,0.751,18.914,8.844,19.367,19.762c-0.638,11.925-9.222,19.48-19.81,19.551C301.209,140.291,291.627,131.85,291.804,120.39z"
		/>
	<path fill-rule="evenodd" clip-rule="evenodd" fill="#72CBDB" d="M319.252,320.326c0.017-0.151,0.019-0.305,0.009-0.456
		c0.332-0.018,0.75,0.085,0.98-0.078c0.64-0.449,1.227-0.423,1.875-0.086c0.193,0.1,0.426,0.138,0.645,0.172
		c0.597,0.092,1.091-0.124,1.504-0.549c0.076-0.08,0.169-0.159,0.209-0.258c0.889-2.171,2.439-3.996,3.25-6.21
		c0.196-0.537,0.551-0.944,1.021-1.289c1.885-1.381,3.813-2.7,5.565-4.261c1-0.891,2.192-1.537,3.497-1.939
		c1.803-0.555,3.537-0.428,5.173,0.529c1.062,0.62,2.07,1.33,3.14,1.935c0.93,0.525,1.302,1.515,2.004,2.222
		c0.904,0.908,1.343,2.034,1.641,3.248c0.163,0.666,0.199,1.308,0.068,1.985c-0.126,0.649-0.379,1.396-0.184,1.965
		c0.512,1.484-0.139,2.524-0.861,3.711c-0.752,1.233-1.274,2.597-2.344,3.637c-0.309,0.3-0.627,0.745-0.658,1.146
		c-0.126,1.591-1.333,2.248-2.437,2.986c-1.761,1.181-3.553,2.315-5.335,3.465c-0.187,0.12-0.392,0.216-0.595,0.307
		c-1.624,0.727-5.808,2.121-7.61,2.511c-0.316,0.068-0.672,0.06-0.99-0.004c-0.532-0.105-1.102-0.489-1.571-0.048
		c-0.296,0.279-0.4,0.774-0.562,1.184c-0.325,0.828-0.628,1.666-0.943,2.498c-0.401,1.059-0.607,2.145-0.522,3.283
		c0.102,1.349-0.028,2.683-0.346,3.995c-0.195,0.812-0.017,1.529,0.396,2.242c0.813,1.407,1.969,2.313,3.452,3.028
		c2.749,1.325,5.442,0.962,8.142,0.086c0.695-0.226,1.297-0.854,1.846-1.395c0.574-0.566,1.172-1.006,1.968-1.194
		c1.11-0.264,2.059-0.832,2.896-1.612c0.404-0.378,0.851-0.74,1.337-0.993c0.826-0.428,1.403-1.056,1.92-1.814
		c0.994-1.459,2.481-1.803,4.133-1.6c0.307,0.039,0.65,0.232,0.864,0.46c0.378,0.404,0.7,0.871,0.993,1.345
		c0.912,1.469,0.845,2.543-0.217,4.015c-0.391,0.543-0.924,1.028-1.155,1.631c-0.67,1.749-2.178,2.809-3.282,4.193
		c-0.262,0.329-0.703,0.545-1.102,0.726c-0.505,0.229-1.077,0.315-1.573,0.56c-0.803,0.394-1.601,0.83-2.021,1.688
		c-0.438,0.896-1.181,1.284-2.138,1.385c-0.677,0.071-1.299,0.318-1.837,0.755c-0.448,0.363-0.97,0.538-1.542,0.579
		c-0.698,0.049-1.291,0.347-1.8,0.81c-0.687,0.625-1.331,0.402-2.144,0.15c-1.479-0.458-3.028-0.754-4.569-0.927
		c-1.585-0.178-3.034-0.728-4.491-1.272c-1.272-0.477-2.417-1.162-3.062-2.463c-0.144-0.289-0.435-0.502-0.645-0.761
		c-1.329-1.636-2.71-3.241-2.854-5.5c-0.021-0.323-0.201-0.637-0.302-0.956c-0.891-2.828-1.177-5.676-0.281-8.563
		c0.219-2.68,0.857-5.277,1.452-7.89c0.217-0.955,0.057-2.001,0.03-3.005c-0.027-1.036,0.131-2.014,0.814-2.832
		c0.718-0.861,0.732-1.84,0.516-2.857c-0.209-0.979-0.413-1.965-0.697-2.924C319.84,320.746,319.483,320.555,319.252,320.326z
		 M331.45,325.076c0.056-0.012,0.608,0.036,0.893-0.217c0.926-0.827,2.252-0.935,3.117-1.829c0.328-0.339,0.73-0.49,1.189-0.504
		c0.59-0.017,1.051-0.23,1.404-0.734c0.571-0.815,1.122-1.659,2.077-2.113c0.189-0.09,0.382-0.261,0.479-0.444
		c0.626-1.175,1.269-2.344,1.823-3.553c0.457-0.996-0.395-2.033-1.544-1.91c-0.542,0.059-1.073,0.229-1.601,0.378
		c-1.189,0.338-2.183,0.9-3.063,1.859c-1.436,1.564-2.632,3.275-3.847,5.002c-0.778,1.105-1.399,2.245-1.879,3.488
		C330.384,324.802,330.661,325.092,331.45,325.076z"/>
	<path fill-rule="evenodd" clip-rule="evenodd" fill="#73CCDB" d="M363.132,304.674c-0.027-2.905-0.077-5.811-0.071-8.717
		c0.003-1.339,0.036-2.688,0.2-4.016c0.461-3.721,0.505-3.711,4.026-4.663c0.854-0.23,1.564-0.054,2.161,0.513
		c0.48,0.456,0.882,1,1.28,1.533c0.399,0.534,0.735,1.116,1.128,1.656c0.347,0.477,0.489,1.001,0.429,1.573
		c-0.093,0.888-0.087,1.812-0.347,2.651c-0.515,1.659-0.52,3.327-0.175,4.972c0.219,1.039,0.086,1.969-0.148,2.958
		c-0.308,1.304-0.449,2.646-0.759,3.949c-0.289,1.217-0.316,2.34,0.051,3.591c0.366,1.245,0.567,2.626,0.076,3.951
		c0.112,2.363-0.862,4.608-0.759,6.979c0.023,0.532-0.272,1.073-0.383,1.619c-0.088,0.434-0.252,0.913-0.15,1.313
		c0.481,1.902-0.156,3.777-0.061,5.662c0.096,1.915-0.214,3.779-0.505,5.661c-0.359,2.326-0.356,4.691-0.067,7.025
		c0.136,1.09,0.537,2.159,0.918,3.202c0.385,1.054,1.596,1.657,2.728,1.457c0.326-0.059,0.64-0.191,0.96-0.29
		c0.426-0.13,0.853-0.369,1.278-0.369c1.471,0.003,2.501-0.785,3.522-1.704c0.571-0.515,1.245-0.939,1.927-1.306
		c1.209-0.648,2.236-1.429,2.858-2.713c0.531-1.094,1.533-1.582,2.72-1.695c0.555-0.053,1.112-0.125,1.667-0.115
		c1.386,0.025,2.603,1.116,2.753,2.463c0.063,0.554,0.056,1.115,0.065,1.673c0.015,0.82-0.254,1.548-0.827,2.13
		c-0.861,0.875-1.737,1.736-2.639,2.569c-0.407,0.377-0.997,0.591-1.317,1.019c-1.136,1.511-2.773,2.205-4.422,2.898
		c-1.34,0.563-2.677,1.106-3.727,2.182c-0.299,0.304-0.742,0.528-1.16,0.644c-2.366,0.649-4.722,1.335-7.236,1.127
		c-1.03-0.086-1.979-0.311-2.873-0.801c-0.908-0.498-1.598-1.15-1.923-2.203c-0.491-1.591-1.377-3.022-2.033-4.554
		c-0.718-1.677-1.188-3.367-1.217-5.169c-0.035-2.234-0.018-4.472,0.042-6.705c0.02-0.773,0.232-1.542,0.356-2.313
		c0.196-1.227,0.273-2.438-0.259-3.62c-0.284-0.631-0.32-1.306,0.01-1.943c0.533-1.036,0.533-2.162,0.563-3.276
		c0.03-1.112-0.057-2.213,0.363-3.307c0.181-0.468,0.063-1.112-0.082-1.631c-0.199-0.712-0.097-1.325,0.293-1.907
		c0.592-0.882,0.687-1.864,0.682-2.887c-0.01-2.348,0-4.695,0-7.044c0.002-1.341,0-2.683,0-4.023
		C363.077,304.674,363.104,304.674,363.132,304.674z"/>
	<path fill-rule="evenodd" clip-rule="evenodd" fill="#70CBDA" d="M256.105,180.666c-0.041,0.073-0.082,0.146-0.122,0.22
		c0.052-0.062,0.104-0.124,0.154-0.187L256.105,180.666z"/>
	<path fill-rule="evenodd" clip-rule="evenodd" fill="#80BDA8" d="M297.116,198.18c0.041-0.066,0.081-0.131,0.121-0.196
		c-0.05,0.055-0.101,0.11-0.151,0.166L297.116,198.18z"/>
</g>
</svg>
